<svg width="29" height="28" viewBox="0 0 29 28" fill="none" xmlns="http://www.w3.org/2000/svg">
<path d="M28.0383 10.0689L19.3601 8.80763L15.4807 0.942884C15.3748 0.727552 15.2004 0.553235 14.9851 0.447278C14.4451 0.180677 13.7888 0.402845 13.5188 0.942884L9.6394 8.80763L0.961177 10.0689C0.721919 10.103 0.503169 10.2158 0.335689 10.3867C0.133214 10.5948 0.0216414 10.8748 0.0254868 11.1651C0.0293322 11.4555 0.148281 11.7324 0.356197 11.9351L6.635 18.0567L5.15161 26.7007C5.11682 26.9018 5.13907 27.1086 5.21584 27.2977C5.2926 27.4867 5.42081 27.6505 5.58592 27.7704C5.75104 27.8904 5.94644 27.9616 6.14999 27.9761C6.35354 27.9906 6.55709 27.9478 6.73754 27.8526L14.4998 23.7715L22.262 27.8526C22.4739 27.9653 22.72 28.0029 22.9558 27.9619C23.5505 27.8594 23.9504 27.2954 23.8479 26.7007L22.3645 18.0567L28.6433 11.9351C28.8142 11.7676 28.927 11.5488 28.9612 11.3096C29.0535 10.7114 28.6365 10.1577 28.0383 10.0689Z" fill="#949494"/>
</svg>
