<svg width="160" height="105" viewBox="0 0 160 105" fill="none" xmlns="http://www.w3.org/2000/svg">
<path d="M71.25 47.5L77.5 37.5H73.75V30L67.5 40H71.25V47.5ZM65 25H80V12.5H65V25ZM65 47.5H80V30H65V47.5ZM60 52.5V7.5H85V30H92.5V48.75H98.125V22.5H95V15H96.25V11.25H98.75V15H101.25V11.25H103.75V15H105V22.5H101.875V52.5H88.75V33.75H85V52.5H60ZM80 47.5H65H80Z" fill="white"/>
<path d="M7.848 99.264C6.488 99.264 5.216 99.096 4.032 98.76C2.848 98.424 1.84 97.96 1.008 97.368L2.112 94.44C2.656 94.808 3.232 95.12 3.84 95.376C4.448 95.632 5.088 95.832 5.76 95.976C6.432 96.104 7.136 96.168 7.872 96.168C9.024 96.168 9.84 95.992 10.32 95.64C10.816 95.288 11.064 94.84 11.064 94.296C11.064 93.8 10.896 93.424 10.56 93.168C10.24 92.896 9.648 92.664 8.784 92.472L5.952 91.896C4.4 91.576 3.24 91.032 2.472 90.264C1.704 89.496 1.32 88.472 1.32 87.192C1.32 86.104 1.608 85.16 2.184 84.36C2.76 83.56 3.568 82.936 4.608 82.488C5.664 82.04 6.896 81.816 8.304 81.816C9.504 81.816 10.624 81.984 11.664 82.32C12.704 82.656 13.56 83.136 14.232 83.76L13.128 86.496C12.472 85.968 11.736 85.576 10.92 85.32C10.12 85.048 9.224 84.912 8.232 84.912C7.192 84.912 6.392 85.096 5.832 85.464C5.288 85.832 5.016 86.336 5.016 86.976C5.016 87.456 5.184 87.848 5.52 88.152C5.856 88.44 6.448 88.672 7.296 88.848L10.08 89.4C11.664 89.72 12.84 90.256 13.608 91.008C14.376 91.76 14.76 92.76 14.76 94.008C14.76 95.064 14.472 95.984 13.896 96.768C13.336 97.552 12.536 98.168 11.496 98.616C10.472 99.048 9.256 99.264 7.848 99.264ZM17.2849 104.184V90C17.2849 89.488 17.2689 88.968 17.2369 88.44C17.2049 87.896 17.1569 87.36 17.0929 86.832H20.5729L20.8609 89.208H20.5969C20.8369 88.408 21.3409 87.776 22.1089 87.312C22.8769 86.832 23.7569 86.592 24.7489 86.592C25.8049 86.592 26.7329 86.848 27.5329 87.36C28.3329 87.856 28.9569 88.576 29.4049 89.52C29.8689 90.464 30.1009 91.592 30.1009 92.904C30.1009 94.232 29.8689 95.368 29.4049 96.312C28.9569 97.256 28.3329 97.984 27.5329 98.496C26.7329 99.008 25.8049 99.264 24.7489 99.264C23.7729 99.264 22.9009 99.032 22.1329 98.568C21.3809 98.104 20.8769 97.488 20.6209 96.72H20.9089V104.184H17.2849ZM23.6449 96.528C24.4929 96.528 25.1729 96.232 25.6849 95.64C26.1969 95.048 26.4529 94.136 26.4529 92.904C26.4529 91.672 26.1969 90.768 25.6849 90.192C25.1729 89.616 24.4929 89.328 23.6449 89.328C22.8129 89.328 22.1329 89.616 21.6049 90.192C21.0929 90.768 20.8369 91.672 20.8369 92.904C20.8369 94.136 21.0929 95.048 21.6049 95.64C22.1329 96.232 22.8129 96.528 23.6449 96.528ZM38.5689 99.264C36.4569 99.264 34.8089 98.696 33.6249 97.56C32.4409 96.424 31.8489 94.88 31.8489 92.928C31.8489 91.664 32.0969 90.56 32.5929 89.616C33.1049 88.672 33.8089 87.936 34.7049 87.408C35.6169 86.864 36.6809 86.592 37.8969 86.592C39.0969 86.592 40.0969 86.848 40.8969 87.36C41.7129 87.872 42.3209 88.592 42.7209 89.52C43.1369 90.432 43.3449 91.496 43.3449 92.712V93.552H34.8249V91.752H40.7049L40.2969 92.088C40.2969 91.08 40.0889 90.32 39.6729 89.808C39.2729 89.28 38.6889 89.016 37.9209 89.016C37.0729 89.016 36.4169 89.328 35.9529 89.952C35.5049 90.576 35.2809 91.472 35.2809 92.64V93.024C35.2809 94.208 35.5689 95.088 36.1449 95.664C36.7369 96.24 37.5849 96.528 38.6889 96.528C39.3449 96.528 39.9609 96.448 40.5369 96.288C41.1289 96.112 41.6889 95.84 42.2169 95.472L43.2249 97.872C42.6169 98.32 41.9129 98.664 41.1129 98.904C40.3289 99.144 39.4809 99.264 38.5689 99.264ZM51.7643 99.264C49.6523 99.264 48.0043 98.696 46.8203 97.56C45.6363 96.424 45.0443 94.88 45.0443 92.928C45.0443 91.664 45.2923 90.56 45.7883 89.616C46.3003 88.672 47.0043 87.936 47.9003 87.408C48.8123 86.864 49.8763 86.592 51.0923 86.592C52.2923 86.592 53.2923 86.848 54.0923 87.36C54.9083 87.872 55.5163 88.592 55.9163 89.52C56.3323 90.432 56.5403 91.496 56.5403 92.712V93.552H48.0203V91.752H53.9003L53.4923 92.088C53.4923 91.08 53.2843 90.32 52.8683 89.808C52.4683 89.28 51.8843 89.016 51.1163 89.016C50.2683 89.016 49.6123 89.328 49.1483 89.952C48.7003 90.576 48.4763 91.472 48.4763 92.64V93.024C48.4763 94.208 48.7643 95.088 49.3403 95.664C49.9323 96.24 50.7803 96.528 51.8843 96.528C52.5403 96.528 53.1563 96.448 53.7323 96.288C54.3243 96.112 54.8843 95.84 55.4123 95.472L56.4203 97.872C55.8123 98.32 55.1083 98.664 54.3083 98.904C53.5243 99.144 52.6763 99.264 51.7643 99.264ZM63.6156 99.264C62.5596 99.264 61.6236 99.008 60.8076 98.496C60.0076 97.984 59.3756 97.256 58.9116 96.312C58.4636 95.368 58.2396 94.232 58.2396 92.904C58.2396 91.592 58.4636 90.464 58.9116 89.52C59.3596 88.576 59.9916 87.856 60.8076 87.36C61.6236 86.848 62.5596 86.592 63.6156 86.592C64.5756 86.592 65.4316 86.824 66.1836 87.288C66.9516 87.736 67.4636 88.344 67.7196 89.112H67.4076V81.336H71.0316V99H67.4556V96.624H67.7676C67.5116 97.424 66.9996 98.064 66.2316 98.544C65.4636 99.024 64.5916 99.264 63.6156 99.264ZM64.6956 96.528C65.5276 96.528 66.1996 96.232 66.7116 95.64C67.2236 95.048 67.4796 94.136 67.4796 92.904C67.4796 91.672 67.2236 90.768 66.7116 90.192C66.1996 89.616 65.5276 89.328 64.6956 89.328C63.8636 89.328 63.1836 89.616 62.6556 90.192C62.1436 90.768 61.8876 91.672 61.8876 92.904C61.8876 94.136 62.1436 95.048 62.6556 95.64C63.1836 96.232 63.8636 96.528 64.6956 96.528ZM86.6331 99.264C85.3371 99.264 84.2011 99.008 83.2251 98.496C82.2491 97.984 81.4971 97.248 80.9691 96.288C80.4411 95.328 80.1771 94.192 80.1771 92.88C80.1771 91.552 80.4411 90.424 80.9691 89.496C81.5131 88.552 82.2651 87.832 83.2251 87.336C84.2011 86.84 85.3371 86.592 86.6331 86.592C87.4491 86.592 88.2411 86.712 89.0091 86.952C89.7931 87.192 90.4331 87.528 90.9291 87.96L89.8731 90.456C89.4731 90.088 89.0091 89.816 88.4811 89.64C87.9691 89.448 87.4731 89.352 86.9931 89.352C86.0171 89.352 85.2571 89.656 84.7131 90.264C84.1691 90.872 83.8971 91.752 83.8971 92.904C83.8971 94.056 84.1691 94.936 84.7131 95.544C85.2571 96.152 86.0171 96.456 86.9931 96.456C87.4571 96.456 87.9451 96.368 88.4571 96.192C88.9851 96.016 89.4571 95.752 89.8731 95.4L90.9291 97.872C90.4171 98.304 89.7691 98.648 88.9851 98.904C88.2171 99.144 87.4331 99.264 86.6331 99.264ZM92.988 99V81.336H96.612V89.112H96.252C96.636 88.296 97.204 87.672 97.956 87.24C98.708 86.808 99.572 86.592 100.548 86.592C101.972 86.592 103.036 87.008 103.74 87.84C104.444 88.656 104.796 89.912 104.796 91.608V99H101.172V91.776C101.172 90.928 101.012 90.32 100.692 89.952C100.388 89.584 99.908 89.4 99.252 89.4C98.452 89.4 97.812 89.648 97.332 90.144C96.852 90.64 96.612 91.304 96.612 92.136V99H92.988ZM112.435 99.264C111.379 99.264 110.451 99.008 109.651 98.496C108.851 97.984 108.227 97.256 107.779 96.312C107.331 95.368 107.107 94.232 107.107 92.904C107.107 91.592 107.331 90.464 107.779 89.52C108.227 88.576 108.851 87.856 109.651 87.36C110.451 86.848 111.379 86.592 112.435 86.592C113.411 86.592 114.283 86.832 115.051 87.312C115.835 87.776 116.347 88.408 116.587 89.208H116.323L116.611 86.832H120.091C120.043 87.36 119.995 87.896 119.947 88.44C119.915 88.968 119.899 89.488 119.899 90V99H116.299L116.275 96.72H116.563C116.307 97.488 115.795 98.104 115.027 98.568C114.259 99.032 113.395 99.264 112.435 99.264ZM113.539 96.528C114.371 96.528 115.043 96.232 115.555 95.64C116.067 95.048 116.323 94.136 116.323 92.904C116.323 91.672 116.067 90.768 115.555 90.192C115.043 89.616 114.371 89.328 113.539 89.328C112.707 89.328 112.035 89.616 111.523 90.192C111.011 90.768 110.755 91.672 110.755 92.904C110.755 94.136 111.003 95.048 111.499 95.64C112.011 96.232 112.691 96.528 113.539 96.528ZM122.847 99V90.048C122.847 89.52 122.831 88.984 122.799 88.44C122.783 87.896 122.743 87.36 122.679 86.832H126.159L126.567 90.384H126.015C126.175 89.52 126.431 88.808 126.783 88.248C127.151 87.688 127.599 87.272 128.127 87C128.671 86.728 129.287 86.592 129.975 86.592C130.279 86.592 130.519 86.608 130.695 86.64C130.871 86.656 131.047 86.696 131.223 86.76L131.199 89.952C130.863 89.808 130.575 89.72 130.335 89.688C130.111 89.64 129.823 89.616 129.471 89.616C128.799 89.616 128.239 89.744 127.791 90C127.359 90.256 127.031 90.632 126.807 91.128C126.599 91.624 126.495 92.224 126.495 92.928V99H122.847ZM138.311 104.376C137.143 104.376 136.103 104.256 135.191 104.016C134.279 103.792 133.463 103.448 132.743 102.984L133.439 100.392C133.887 100.68 134.359 100.912 134.855 101.088C135.367 101.28 135.887 101.416 136.415 101.496C136.959 101.592 137.495 101.64 138.023 101.64C139.095 101.64 139.895 101.384 140.423 100.872C140.951 100.36 141.215 99.632 141.215 98.688V96.168H141.455C141.199 96.936 140.687 97.552 139.919 98.016C139.151 98.48 138.287 98.712 137.327 98.712C136.239 98.712 135.287 98.464 134.471 97.968C133.671 97.472 133.047 96.768 132.599 95.856C132.151 94.944 131.927 93.872 131.927 92.64C131.927 91.408 132.151 90.336 132.599 89.424C133.047 88.512 133.671 87.816 134.471 87.336C135.287 86.84 136.239 86.592 137.327 86.592C138.303 86.592 139.159 86.824 139.895 87.288C140.647 87.736 141.151 88.336 141.407 89.088L141.215 88.992L141.455 86.832H144.959C144.895 87.36 144.847 87.896 144.815 88.44C144.783 88.968 144.767 89.488 144.767 90V98.28C144.767 100.248 144.215 101.752 143.111 102.792C142.007 103.848 140.407 104.376 138.311 104.376ZM138.407 95.976C139.255 95.976 139.927 95.688 140.423 95.112C140.919 94.536 141.167 93.712 141.167 92.64C141.167 91.568 140.919 90.752 140.423 90.192C139.927 89.616 139.255 89.328 138.407 89.328C137.527 89.328 136.831 89.616 136.319 90.192C135.823 90.752 135.575 91.568 135.575 92.64C135.575 93.712 135.823 94.536 136.319 95.112C136.831 95.688 137.527 95.976 138.407 95.976ZM153.835 99.264C151.723 99.264 150.075 98.696 148.891 97.56C147.707 96.424 147.115 94.88 147.115 92.928C147.115 91.664 147.363 90.56 147.859 89.616C148.371 88.672 149.075 87.936 149.971 87.408C150.883 86.864 151.947 86.592 153.163 86.592C154.363 86.592 155.363 86.848 156.163 87.36C156.979 87.872 157.587 88.592 157.987 89.52C158.403 90.432 158.611 91.496 158.611 92.712V93.552H150.091V91.752H155.971L155.563 92.088C155.563 91.08 155.355 90.32 154.939 89.808C154.539 89.28 153.955 89.016 153.187 89.016C152.339 89.016 151.683 89.328 151.219 89.952C150.771 90.576 150.547 91.472 150.547 92.64V93.024C150.547 94.208 150.835 95.088 151.411 95.664C152.003 96.24 152.851 96.528 153.955 96.528C154.611 96.528 155.227 96.448 155.803 96.288C156.395 96.112 156.955 95.84 157.483 95.472L158.491 97.872C157.883 98.32 157.179 98.664 156.379 98.904C155.595 99.144 154.747 99.264 153.835 99.264Z" fill="white"/>
</svg>
