<svg width="21" height="20" viewBox="0 0 21 20" fill="none" xmlns="http://www.w3.org/2000/svg">
<g clip-path="url(#clip0_46_13271)">
<path d="M16.75 10C16.75 10 20.5 6.25 20.5 3.75C20.5 1.67969 18.8203 0 16.75 0C14.6797 0 13 1.67969 13 3.75C13 4.89844 13.7891 6.30859 14.6445 7.5H13C10.9297 7.5 9.25 9.17969 9.25 11.25C9.25 13.3203 10.9297 15 13 15H16.75C17.4414 15 18 15.5586 18 16.25C18 16.9414 17.4414 17.5 16.75 17.5H7.86719C7.625 17.875 7.375 18.2344 7.125 18.5625C6.70703 19.1172 6.29297 19.6133 5.95312 20H16.75C18.8203 20 20.5 18.3203 20.5 16.25C20.5 14.1797 18.8203 12.5 16.75 12.5H13C12.3086 12.5 11.75 11.9414 11.75 11.25C11.75 10.5586 12.3086 10 13 10H16.75ZM16.75 5C16.0586 5 15.5 4.44141 15.5 3.75C15.5 3.05859 16.0586 2.5 16.75 2.5C17.4414 2.5 18 3.05859 18 3.75C18 4.44141 17.4414 5 16.75 5ZM6.35547 17.5C7.21094 16.3086 8 14.8984 8 13.75C8 11.6797 6.32031 10 4.25 10C2.17969 10 0.5 11.6797 0.5 13.75C0.5 16.25 4.25 20 4.25 20C4.25 20 4.38672 19.8633 4.60938 19.625C4.625 19.6094 4.63672 19.5938 4.65234 19.5781C4.78125 19.4414 4.92969 19.2734 5.09766 19.0781L5.12109 19.0547C5.48828 18.6328 5.92969 18.0938 6.35547 17.5ZM4.25 15C3.55859 15 3 14.4414 3 13.75C3 13.0586 3.55859 12.5 4.25 12.5C4.94141 12.5 5.5 13.0586 5.5 13.75C5.5 14.4414 4.94141 15 4.25 15Z" fill="#2269BE"/>
</g>
<defs>
<clipPath id="clip0_46_13271">
<rect width="20" height="20" fill="white" transform="translate(0.5)"/>
</clipPath>
</defs>
</svg>
