<svg width="20" height="20" viewBox="0 0 20 20" fill="none" xmlns="http://www.w3.org/2000/svg">
<path d="M10 0.833252C11.9891 0.833252 13.8968 1.62343 15.3033 3.02995C16.7098 4.43647 17.5 6.34413 17.5 8.33325C17.5 11.4383 15.1333 14.6916 10.5 18.1666C10.3558 18.2748 10.1803 18.3333 10 18.3333C9.81969 18.3333 9.64425 18.2748 9.5 18.1666C4.86667 14.6916 2.5 11.4383 2.5 8.33325C2.5 6.34413 3.29018 4.43647 4.6967 3.02995C6.10322 1.62343 8.01088 0.833252 10 0.833252ZM10 5.83325C9.33696 5.83325 8.70107 6.09664 8.23223 6.56549C7.76339 7.03433 7.5 7.67021 7.5 8.33325C7.5 8.99629 7.76339 9.63218 8.23223 10.101C8.70107 10.5699 9.33696 10.8333 10 10.8333C10.663 10.8333 11.2989 10.5699 11.7678 10.101C12.2366 9.63218 12.5 8.99629 12.5 8.33325C12.5 7.67021 12.2366 7.03433 11.7678 6.56549C11.2989 6.09664 10.663 5.83325 10 5.83325Z" fill="#B4B4B4"/>
</svg>
